<svg id="visual" viewBox="0 0 900 600" width="900" height="600" xmlns="http://www.w3.org/2000/svg" xmlns:xlink="http://www.w3.org/1999/xlink" version="1.1"><rect x="0" y="0" width="900" height="600" fill="#002233"></rect><path d="M0 232L21.5 251.2C43 270.3 86 308.7 128.8 307.5C171.7 306.3 214.3 265.7 257.2 250.2C300 234.7 343 244.3 385.8 233.8C428.7 223.3 471.3 192.7 514.2 193.2C557 193.7 600 225.3 642.8 224.3C685.7 223.3 728.3 189.7 771.2 189.7C814 189.7 857 223.3 878.5 240.2L900 257L900 601L878.5 601C857 601 814 601 771.2 601C728.3 601 685.7 601 642.8 601C600 601 557 601 514.2 601C471.3 601 428.7 601 385.8 601C343 601 300 601 257.2 601C214.3 601 171.7 601 128.8 601C86 601 43 601 21.5 601L0 601Z" fill="#Ffe32e" stroke-linecap="round" stroke-linejoin="miter"></path></svg>